<?xml version="1.0" encoding="utf-8"?>
<!-- Generator: Adobe Illustrator 26.1.0, SVG Export Plug-In . SVG Version: 6.00 Build 0)  -->
<svg version="1.1" id="Layer_1" xmlns="http://www.w3.org/2000/svg" xmlns:xlink="http://www.w3.org/1999/xlink" x="0px" y="0px"
	 viewBox="0 0 335.17 320.37" style="enable-background:new 0 0 335.17 320.37;" xml:space="preserve">
<style type="text/css">
	.st0{fill:#FC8530;}
</style>
<g>
	<path class="st0" d="M168.57,7.62c34.02,0,68.05-0.49,102.05,0.15c29.76,0.56,55.22,26.29,56.44,56.09
		c0.53,13.02,0.29,26.06,0.3,39.1c0.03,48.33,0.03,96.66,0,144.99c-0.02,35.08-20.46,58.95-55.11,64.34
		c-2.96,0.46-6.02,0.44-9.03,0.44c-63.59,0.09-127.18,0.07-190.77,0.24c-25.83,0.07-45.28-10.68-57.95-33.27
		c-4.51-8.03-6.7-16.81-6.7-26.03c-0.03-62.8-0.11-125.59,0.03-188.39c0.06-27,22.41-52.73,49.73-56.45
		C69.44,7.21,81.64,7.59,93.7,7.5c24.96-0.18,49.92-0.05,74.88-0.05C168.57,7.51,168.57,7.56,168.57,7.62z M92.68,169.52
		c-5.3,1.49-9.8,3.68-14.37,3.87c-15.22,0.63-30.48,0.73-45.72,0.61c-4.73-0.04-5.97,1.63-5.94,6.04
		c0.14,23.68-0.08,47.37,0.11,71.06c0.19,24.24,19.01,42.7,43.24,42.71c65.65,0.02,131.3,0.01,196.95-0.01
		c2.06,0,4.15-0.05,6.17-0.39c20.48-3.44,35.18-21.05,35.19-42.48c0.04-61.2-0.03-122.4-0.07-183.6c0-1.74-0.08-3.51-0.39-5.21
		c-3.96-21.64-20.35-35.32-42.61-35.34c-61.2-0.06-122.4-0.04-183.6,0.01c-6.51,0.01-13.03,0.28-19.51,0.78
		c-17.25,1.34-34.06,17.88-34.62,35.16c-0.72,22.23-0.45,44.49-0.61,66.73c-0.05,6.2-0.1,12.4-0.17,18.59
		c-0.04,3.15,0.85,5,4.62,4.94c13.49-0.21,26.99,0.1,40.48-0.3c13.09-0.38,20.61-8.44,20.84-21.65c0.12-6.83-0.01-13.67,0.03-20.51
		c0.05-8.06,3.69-12.29,10.59-12.38c7.2-0.1,11.16,4.17,11.17,12.33c0.04,26.86,0.04,53.73,0,80.59
		c-0.01,7.94-3.8,12.02-10.91,12.05c-7.08,0.03-10.8-4.06-10.85-12.05C92.65,183.95,92.68,176.81,92.68,169.52z"/>
	<path class="st0" d="M239.35,157.77c0,8.41-0.33,16.83,0.07,25.22c0.95,20.04-15.98,38.45-37.8,35.22
		c-1.05-0.16-2.15-0.02-3.63-0.02c-0.17,2.48-0.25,4.82-0.5,7.14c-0.59,5.36-4.1,8.89-9.15,9.32c-6.07,0.52-10.16-1.96-11.76-7.35
		c-0.53-1.79-0.77-3.74-0.77-5.62c-0.04-36.55-0.06-73.1-0.02-109.64c0.01-9.52,3.97-14.1,11.75-13.93
		c5.96,0.13,9.84,3.72,10.04,9.78c0.21,6.51,0.08,13.03,0.08,19.54c0,18.59-0.02,37.18,0.03,55.77c0.01,2.21,0.13,4.46,0.59,6.61
		c1.08,4.97,4.72,7.94,9.32,7.92c4.6-0.02,8.65-2.97,9.48-7.81c0.75-4.35,0.75-8.84,0.85-13.27c0.24-10.79,0.38-21.59,0.48-32.39
		c0.06-6.3,1.81-11.69,7.92-14.55c6.76-3.16,13.54-2.87,19.17,2.14c4.1,3.65,7.7,8.04,10.83,12.57c4.38,6.33,9.62,9.56,17.62,8.65
		c8.17-0.93,12.86,2.83,13.17,9.47c0.3,6.47-2.8,9.94-9.27,10.95c-15.18,2.37-27.67-1.61-36.4-14.89c-0.34-0.52-0.47-1.18-0.7-1.78
		C240.28,157.14,239.81,157.45,239.35,157.77z"/>
	<path class="st0" d="M134.96,160.13c0-30.2-0.01-60.4,0.01-90.6c0.01-7.55,3.22-11.83,9.41-12.76c4.8-0.72,9.41,1.9,10.87,6.53
		c0.65,2.07,0.84,4.37,0.85,6.57c0.04,60.24,0.04,120.48,0.02,180.71c0,9.03-4.21,13.3-12.2,12.48c-4.63-0.48-7.69-2.85-8.43-7.62
		c-0.34-2.19-0.52-4.42-0.52-6.63C134.95,219.25,134.96,189.69,134.96,160.13z"/>
</g>
</svg>
