<?xml version="1.0" encoding="UTF-8"?>
<svg width="200" height="200" viewBox="0 0 200 200" xmlns="http://www.w3.org/2000/svg">
  <rect width="200" height="200" fill="#3B82F6" />
  <circle cx="100" cy="100" r="50" fill="#0F172A" />
  <path d="M85 75v50M85 75c0-2.76 2.24-5 5-5s5 2.24 5 5-2.24 5-5 5M85 125c0 2.76 2.24 5 5 5s5-2.24 5-5-2.24-5-5-5M105 85v40M105 85c0-2.76 2.24-5 5-5s5 2.24 5 5-2.24 5-5 5M105 125c0 2.76 2.24 5 5 5s5-2.24 5-5-2.24-5-5-5" stroke="white" stroke-width="2" stroke-linecap="round" />
</svg>
